# xmcd
#
# Track frame offsets: 
#        150
#        24685
#        44373
#        66930
#        102362
#        128900
#        149847
#        170992
#        190913
#        212834
#
# Disc length: 3109 seconds
#
# Revision: 1
# Processed by: cddbd v1.5.2PL0 Copyright (c) Steve Scherf et al.
# Submitted via: ExactAudioCopy v0.99pb5
#
DISCID=a30c230a
DTITLE=Joe Louis Walker - Guitar Brothers
DYEAR=1900
DGENRE=Blues
TTITLE0=Snake Bit
TTITLE1=Imitation Ice Cream Blues
TTITLE2=I Like It This Way
TTITLE3=Better Off Alone
TTITLE4=Friends
TTITLE5=I'm Getting Drunk
TTITLE6=Rude Women
TTITLE7=Regal Blues
TTITLE8=Bliss Street Blues
TTITLE9=I'm Gonna Love You
EXTD=
EXTT0=
EXTT1=
EXTT2=
EXTT3=
EXTT4=
EXTT5=
EXTT6=
EXTT7=
EXTT8=
EXTT9=
PLAYORDER=
